PathFileType	4	(X/Y/Z)	s06c0103.trc
DataRate	CameraRate	NumFrames	NumMarkers	Units	OrigDataRate	OrigDataStartFrame	OrigNumFrames
200	200	5	48	mm	200	1000	2000
Frame#	Time	racr			lacr			c7			jug			rlel			rdr			llel			ldr			s2			lic			ric			lasi			rasi			rpsi			lpsi			rgt			lgt			rth1			rth2			rth3			rth4			rlfc			rmfc			rsh1			rsh2			rsh3			rsh4			rlmal			rcal			rtoe			rmt5			lth1			lth2			lth4			lth3			llfc			lmfc			llmal			lcal			lmt5			lsh1			lsh2			lsh3			lsh4			ltoe			SBIKE			LBIKE			RBIKE			
		X1	Y1	Z1	X2	Y2	Z2	X3	Y3	Z3	X4	Y4	Z4	X5	Y5	Z5	X6	Y6	Z6	X7	Y7	Z7	X8	Y8	Z8	X9	Y9	Z9	X10	Y10	Z10	X11	Y11	Z11	X12	Y12	Z12	X13	Y13	Z13	X14	Y14	Z14	X15	Y15	Z15	X16	Y16	Z16	X17	Y17	Z17	X18	Y18	Z18	X19	Y19	Z19	X20	Y20	Z20	X21	Y21	Z21	X22	Y22	Z22	X23	Y23	Z23	X24	Y24	Z24	X25	Y25	Z25	X26	Y26	Z26	X27	Y27	Z27	X28	Y28	Z28	X29	Y29	Z29	X30	Y30	Z30	X31	Y31	Z31	X32	Y32	Z32	X33	Y33	Z33	X34	Y34	Z34	X35	Y35	Z35	X36	Y36	Z36	X37	Y37	Z37	X38	Y38	Z38	X39	Y39	Z39	X40	Y40	Z40	X41	Y41	Z41	X42	Y42	Z42	X43	Y43	Z43	X44	Y44	Z44	X45	Y45	Z45	X46	Y46	Z46	X47	Y47	Z47	X48	Y48	Z48	
1000	5.0000	514.796551	1310.620762	-83.451145	523.747934	1285.750590	-373.782513	523.321871	1352.011423	-233.951455	496.995196	1195.945041	-211.508319	507.831867	1057.323569	27.573759	708.953314	929.021392	-50.545429	511.986516	1038.414557	-488.985513	709.293635	919.177474	-416.610513	-26.800386	1150.299069	-234.163513	136.697370	1099.330194	-385.986634	114.809155	1130.356005	-64.692585	150.678219	1049.385617	-354.779063	143.663005	1087.738872	-96.668583	1.053883	1188.615407	-203.426010	3.346152	1183.195348	-262.444202	98.373378	1070.244302	-27.057350	93.951487	1026.061030	-420.714059	205.358053	996.582353	-21.188071	291.083128	967.638875	-30.844808	348.506046	903.546889	-33.652223	306.700154	996.183339	-51.603301	411.342293	815.012240	-60.290486	398.442157	787.150283	-168.172303	372.448934	694.918038	-34.332467	357.562087	610.373052	-54.625703	306.904409	540.044838	-53.133662	377.042551	605.916691	-88.898096	261.960019	467.712924	-58.159895	197.654635	435.344014	-105.838741	472.412121	404.161328	-96.834901	372.476128	390.703473	-30.488880	144.003031	916.097580	-431.894617	213.102804	862.903878	-432.136654	242.199131	884.469081	-424.129068	246.980591	780.170292	-428.603271	280.959763	670.851717	-408.225631	287.013686	660.551958	-290.907934	47.867475	390.145233	-369.305114	-15.786706	416.798753	-320.361833	87.496746	251.106130	-398.566427	222.221237	579.307902	-421.177888	185.186909	505.844258	-393.802489	113.664942	453.679428	-386.249234	207.970788	494.950031	-363.077880	153.403080	191.789514	-342.431050	-203.800584	865.525365	-211.426570	-50.716526	79.983188	-411.282054	-50.603123	79.976664	-13.804942	
1001	5.0050	516.736102	1308.939984	-83.300659	523.477783	1284.757992	-374.385513	524.694000	1350.827462	-234.114702	496.953945	1194.956013	-211.972086	508.449670	1055.256956	27.999338	709.208879	928.227234	-49.991369	510.903517	1036.716857	-488.354282	709.286984	919.049460	-415.879160	-25.936149	1148.866903	-233.216188	137.618394	1098.622544	-385.457473	116.132535	1126.665293	-63.731893	151.937909	1048.770157	-355.320583	145.051281	1084.554051	-96.275137	2.017902	1186.765474	-201.994081	4.274281	1181.805285	-261.008772	99.069944	1065.412381	-27.045061	95.521741	1026.608098	-420.774168	205.592054	990.149069	-21.044872	290.602111	959.149468	-30.107110	345.786058	892.788979	-33.778658	306.554181	986.871929	-50.761461	406.860558	803.004074	-59.099749	394.062846	774.897209	-166.040884	369.372521	682.831464	-34.043185	356.834541	597.868681	-54.602672	307.209512	526.693470	-53.662583	376.070184	594.425591	-89.001249	264.287662	455.020332	-58.482166	201.036864	422.514956	-105.626594	475.443331	394.240088	-96.567096	375.493076	379.749062	-30.428232	147.291032	918.018487	-432.226702	217.526323	866.306872	-431.839964	245.967016	888.281967	-422.971479	253.070251	784.210914	-429.265531	287.092793	674.984379	-409.064740	292.961028	663.658012	-292.201982	47.180238	400.428287	-369.427067	-16.045388	428.103743	-320.389360	84.589874	261.007279	-398.583916	226.214698	584.751917	-421.893198	187.444081	512.419852	-394.250877	114.518977	462.053281	-386.492538	209.874132	501.152736	-363.501819	149.467317	200.693335	-342.276755	-203.473695	865.562256	-211.267401	-50.656500	79.984425	-411.238533	-50.572112	79.929344	-13.763649	
1002	5.0100	518.730193	1307.208915	-82.932565	523.261671	1283.877280	-374.817645	525.939649	1349.637121	-234.159129	497.309841	1193.881939	-212.282192	509.245364	1053.478419	28.736359	709.562529	927.437838	-49.471214	509.837467	1035.066384	-487.588639	709.397296	919.004936	-415.073650	-25.664683	1147.175996	-230.836434	138.546406	1098.080371	-384.974726	117.225462	1122.754169	-62.874562	152.866190	1048.148983	-354.989812	146.091081	1081.065615	-95.966147	3.015595	1184.913124	-200.532310	5.154707	1180.476112	-259.467297	99.646465	1060.557465	-27.024273	97.346513	1027.296200	-420.815817	205.766272	983.667164	-20.219395	289.821423	950.557278	-29.247050	343.966697	882.472789	-34.141970	306.707719	978.193760	-49.736162	402.199967	791.368147	-57.815573	389.909992	763.276618	-165.033426	365.752423	670.927771	-33.608977	355.632074	585.940095	-54.181034	307.475674	513.643915	-54.015355	375.063060	583.034101	-88.764591	265.960526	442.912355	-58.472678	202.546195	409.962873	-106.036624	477.915289	383.954761	-96.351646	377.847363	368.757156	-30.352708	150.810730	920.149707	-432.662287	222.121475	869.979262	-431.612800	249.898168	892.369046	-421.886176	259.394161	788.656866	-430.030225	293.379920	679.588341	-409.864471	299.261161	667.012470	-293.755188	47.158681	410.889970	-369.578488	-15.644697	439.767226	-320.491238	82.258422	271.096412	-398.523777	230.680312	590.466811	-422.675942	190.103490	519.290075	-394.782771	115.987286	470.696775	-386.743950	212.272801	507.669925	-363.939385	146.243248	209.642074	-342.184003	-203.280422	865.559968	-211.189150	-50.547217	80.007449	-411.235338	-50.499304	79.876318	-13.731591	
1003	5.0150	520.753203	1305.530158	-82.366871	522.960195	1282.730320	-374.490041	526.987567	1348.512034	-233.964945	498.010400	1192.780465	-212.326689	510.265118	1051.770970	29.641295	709.967207	926.814187	-49.164726	509.051212	1033.510993	-486.715554	709.644838	919.001268	-414.421990	-24.623269	1145.603056	-230.055217	139.522507	1097.826079	-384.501159	118.109702	1118.826442	-62.153321	153.720871	1047.356736	-354.569551	146.873390	1077.618049	-95.890902	3.845502	1183.258820	-198.779675	6.020211	1179.111482	-257.959238	100.145528	1055.489884	-27.046340	99.331805	1028.056754	-420.755243	205.613967	976.923202	-19.506306	288.740322	942.044462	-28.207087	341.206958	872.574122	-33.508303	306.355221	969.184511	-48.380583	397.371738	779.739564	-56.447545	386.034735	752.429270	-163.096203	362.231027	659.474128	-33.279314	354.107986	574.371820	-53.906641	307.352250	501.140087	-54.288613	373.860315	572.044292	-88.391073	267.417689	430.951711	-58.494315	204.256189	398.061849	-105.978038	479.773374	373.421217	-96.100827	379.768092	357.756989	-30.347554	154.500421	922.595397	-432.987198	226.848875	873.885042	-431.352504	254.022022	896.793523	-420.760514	265.839763	793.425935	-430.856387	299.954320	684.637914	-410.787370	305.710615	670.825898	-295.418831	47.862162	421.494596	-369.855854	-14.613981	451.378797	-320.725908	80.675702	281.152121	-398.552752	235.388749	596.549568	-423.519459	193.230237	526.420370	-395.355253	118.020196	479.533323	-387.155076	215.030684	514.427305	-364.327340	143.626381	218.952203	-342.106557	-203.167861	865.582487	-211.189479	-50.445224	80.016025	-411.214889	-50.438278	79.887854	-13.714520	
1004	5.0200	522.492587	1303.581581	-81.765279	522.922887	1281.719601	-374.460289	527.825937	1347.447565	-233.749265	499.077627	1191.589240	-212.673445	511.532344	1050.181249	30.647152	710.460204	926.304715	-49.152459	508.438887	1032.155500	-485.807660	710.017861	919.021795	-414.045968	-23.399902	1143.960269	-229.358065	140.527217	1097.611349	-384.039926	119.856313	1115.488329	-60.764542	154.681810	1046.854811	-354.172312	148.639589	1074.742567	-95.006694	4.611064	1181.869619	-197.465887	6.958661	1178.214645	-257.169404	100.362046	1050.500371	-26.789323	101.476631	1029.018296	-420.579263	204.480463	969.958439	-18.872117	286.798579	932.797048	-26.954070	338.006511	862.559596	-32.665503	305.601299	960.321688	-46.861588	392.287343	769.088973	-54.696083	383.479490	742.302581	-161.129955	358.465064	648.779383	-32.264667	352.489084	563.587883	-53.274702	307.381772	489.306680	-54.485977	372.552276	561.870900	-87.696891	268.361063	419.148665	-58.522213	205.087141	386.106432	-106.155076	481.040891	362.680433	-95.788238	381.001876	346.749209	-30.313286	158.300985	925.221148	-432.706500	231.603170	878.118300	-431.109881	258.121214	901.387542	-419.724759	272.330681	798.575552	-431.628941	306.561725	690.033947	-411.571586	312.251107	674.988951	-297.087592	49.217076	432.165619	-370.208945	-13.006834	463.182814	-320.933069	79.736491	291.507773	-398.630923	240.478002	602.879563	-424.235432	196.749813	533.702387	-395.650417	120.592661	488.530188	-387.544952	218.280883	521.483507	-364.715884	141.736145	228.234483	-342.102274	-203.165168	865.560533	-211.166993	-50.385830	80.024264	-411.166550	-50.383560	79.878871	-13.703790	
